<svg width="24.000000" height="24.000000" viewBox="0 0 24 24" fill="none" xmlns="http://www.w3.org/2000/svg" xmlns:xlink="http://www.w3.org/1999/xlink">
	<desc>
			Created with Pixso.
	</desc>
	<defs>
		<clipPath id="clip156_1738">
			<rect id="Icon/24px/Gaming" rx="-0.500000" width="23.000000" height="23.000000" transform="translate(0.500000 0.500000)" fill="white" fill-opacity="0"/>
		</clipPath>
	</defs>
	<rect id="Icon/24px/Gaming" rx="-0.500000" width="23.000000" height="23.000000" transform="translate(0.500000 0.500000)" fill="#FFFFFF" fill-opacity="0"/>
	<g clip-path="url(#clip156_1738)">
		<path id="Vector" d="M4 5C2.34 5 1 6.34 1 8L1 16C1 17.65 2.34 19 4 19L20 19C21.65 19 23 17.65 23 16L23 8C23 6.34 21.65 5 20 5L4 5ZM3 8C3 7.44 3.44 7 4 7L20 7C20.55 7 21 7.44 21 8L21 16C21 16.55 20.55 17 20 17L4 17C3.44 17 3 16.55 3 16L3 8ZM9 10C9 9.44 8.55 9 8 9C7.44 9 7 9.44 7 10L7 11L6 11C5.44 11 5 11.44 5 12C5 12.55 5.44 13 6 13L7 13L7 14C7 14.55 7.44 15 8 15C8.55 15 9 14.55 9 14L9 13L10 13C10.55 13 11 12.55 11 12C11 11.44 10.55 11 10 11L9 11L9 10ZM15 9.5C15.82 9.5 16.5 10.17 16.5 11L16.5 11.01C16.5 11.83 15.82 12.51 15 12.51C14.17 12.51 13.5 11.83 13.5 11.01L13.5 11C13.5 10.17 14.17 9.5 15 9.5ZM19.5 12.99C19.5 12.17 18.82 11.49 18 11.49C17.17 11.49 16.5 12.17 16.5 12.99L16.5 13.01C16.5 13.83 17.17 14.51 18 14.51C18.82 14.51 19.5 13.83 19.5 13.01L19.5 12.99Z" fill="#2E2E2E" fill-opacity="1.000000" fill-rule="evenodd"/>
	</g>
</svg>
