<svg width="24.000000" height="24.000000" viewBox="0 0 24 24" fill="none" xmlns="http://www.w3.org/2000/svg" xmlns:xlink="http://www.w3.org/1999/xlink">
	<desc>
			Created with Pixso.
	</desc>
	<defs>
		<clipPath id="clip156_1740">
			<rect id="Icon/24px/Headphones" rx="-0.500000" width="23.000000" height="23.000000" transform="translate(0.500000 0.500000)" fill="white" fill-opacity="0"/>
		</clipPath>
	</defs>
	<rect id="Icon/24px/Headphones" rx="-0.500000" width="23.000000" height="23.000000" transform="translate(0.500000 0.500000)" fill="#FFFFFF" fill-opacity="0"/>
	<g clip-path="url(#clip156_1740)">
		<path id="Vector" d="M7 13C8.1 13 9 13.89 9 15L9 18C9 19.1 8.1 20 7 20L6 20C4.89 20 4 19.1 4 18L4 15C4 13.89 4.89 13 6 13L7 13ZM18 13C19.1 13 20 13.89 20 15L20 18C20 19.1 19.1 20 18 20L17 20C15.89 20 15 19.1 15 18L15 15C15 13.89 15.89 13 17 13L18 13ZM4 15L4 12C4 9.87 4.84 7.84 6.34 6.34C7.84 4.84 9.87 4 12 4C14.12 4 16.15 4.84 17.65 6.34C19.15 7.84 20 9.87 20 12L20 15" stroke="#2E2E2E" stroke-opacity="1.000000" stroke-width="2.000000" stroke-linejoin="round"/>
	</g>
</svg>
