<svg width="24.000000" height="24.000000" viewBox="0 0 24 24" fill="none" xmlns="http://www.w3.org/2000/svg" xmlns:xlink="http://www.w3.org/1999/xlink">
	<desc>
			Created with Pixso.
	</desc>
	<defs/>
	<rect id="Icon/24px/Plus" rx="-0.500000" width="23.000000" height="23.000000" transform="translate(0.500000 0.500000)" fill="#FFFFFF" fill-opacity="0"/>
	<path id="Subtract" d="M0 12C0 5.37256 5.37256 0 12 0C18.6274 0 24 5.37256 24 12C24 18.6274 18.6274 24 12 24C5.37256 24 0 18.6274 0 12ZM11 7C11 6.44 11.44 6 12 6C12.56 6 13 6.44 13 7L13 11L17 11C17.56 11 18 11.44 18 12C18 12.56 17.56 13 17 13L13 13L13 17C13 17.56 12.56 18 12 18C11.44 18 11 17.56 11 17L11 13L7 13C6.44 13 6 12.56 6 12C6 11.44 6.44 11 7 11L11 11L11 7Z" clip-rule="evenodd" fill="#222222" fill-opacity="1.000000" fill-rule="evenodd"/>
</svg>
