<svg width="24.000000" height="24.000000" viewBox="0 0 24 24" fill="none" xmlns="http://www.w3.org/2000/svg" xmlns:xlink="http://www.w3.org/1999/xlink">
	<desc>
			Created with Pixso.
	</desc>
	<defs>
		<clipPath id="clip328_2660">
			<rect id="Icon/24px/Payment" rx="11.500000" width="23.000000" height="23.000000" transform="translate(0.500000 0.500000)" fill="white" fill-opacity="0"/>
		</clipPath>
	</defs>
	<rect id="Icon/24px/Payment" rx="11.500000" width="23.000000" height="23.000000" transform="translate(0.500000 0.500000)" fill="#000000" fill-opacity="1.000000"/>
	<g clip-path="url(#clip328_2660)">
		<path id="Vector" d="M17.22 13.98C17.04 13.84 15.49 12.13 14.61 11.33C14.61 11.33 14.61 11.33 14.61 11.33L14.61 7.65C14.61 6.74 13.87 6 12.96 6L7.53 6C6.69 6 6 6.69 6 7.53L6 16.16C6 17.07 6.74 17.81 7.65 17.81L9.23 17.81L9.63 17.81C9.69 17.81 9.75 17.75 9.74 17.68L9.66 16.95C9.65 16.89 9.6 16.85 9.54 16.85L9.39 16.85L9.31 16.85C9.24 16.85 9.19 16.8 9.19 16.74L9.19 6.94C9.19 6.88 9.24 6.82 9.31 6.82L12.97 6.82C13.34 6.82 13.64 7.13 13.64 7.5L13.64 15.5L13.64 16.29C13.64 16.54 13.46 16.76 13.23 16.83C13.22 16.83 13.22 16.83 13.22 16.83C12.82 16.61 12.35 15.68 12.28 15.54C12.27 15.53 12.27 15.51 12.27 15.5C12.24 15.26 11.98 12.99 10.76 12.99C10.73 12.99 10.69 12.99 10.66 12.99C10.66 12.99 9.69 13.07 10.49 15.84C10.49 15.85 10.5 15.85 10.5 15.86L10.85 18.93C10.85 18.93 10.85 18.93 10.86 18.94C10.89 19.06 11.29 20.62 12.33 21.73C12.35 21.75 12.36 21.78 12.36 21.81L12.36 22.07C12.36 22.08 12.36 22.09 12.35 22.09L12.26 22.09C12.03 22.09 11.84 22.27 11.84 22.5L11.84 23.58C11.84 23.81 12.03 24 12.26 24L16.65 24C16.88 24 17.07 23.81 17.07 23.58L17.07 22.51C17.07 22.28 16.88 22.09 16.65 22.09C16.65 22.09 16.64 22.09 16.64 22.08C16.79 20.73 17.31 16.1 17.59 15.74C17.6 15.73 17.61 15.72 17.61 15.7C17.66 15.54 17.9 14.51 17.22 13.98ZM7.72 16.74C7.72 16.8 7.68 16.85 7.62 16.85C7.25 16.85 6.96 16.55 6.96 16.18L6.96 7.49C6.96 7.12 7.25 6.82 7.62 6.82C7.68 6.82 7.72 6.87 7.72 6.93L7.72 16.74Z" fill="#FFFFFF" fill-opacity="1.000000" fill-rule="nonzero"/>
	</g>
</svg>
