<svg width="24.000000" height="24.000000" viewBox="0 0 24 24" fill="none" xmlns="http://www.w3.org/2000/svg" xmlns:xlink="http://www.w3.org/1999/xlink">
	<desc>
			Created with Pixso.
	</desc>
	<defs/>
	<rect id="Icon/24px/Arrow Down" rx="-0.500000" width="23.000000" height="23.000000" transform="translate(0.500000 0.500000)" fill="#FFFFFF" fill-opacity="0"/>
	<path id="Vector 9" d="M18.5 9.53L18.53 9.53C18.82 9.23 18.82 8.76 18.53 8.46C18.23 8.17 17.76 8.17 17.46 8.46L17.46 8.49L18.5 9.53ZM6.53 8.49L6.53 8.46C6.23 8.17 5.76 8.17 5.46 8.46C5.17 8.76 5.17 9.23 5.46 9.53L5.49 9.53L6.53 8.49Z" fill="#191919" fill-opacity="1.000000" fill-rule="nonzero"/>
	<path id="Vector 9" d="M17.46 8.46L11.46 14.46L12 15L12.53 14.46L6.53 8.46L5.46 9.53L12 16.06L18.53 9.53L17.46 8.46ZM18.5 9.53L18.53 9.53C18.82 9.23 18.82 8.76 18.53 8.46C18.23 8.17 17.76 8.17 17.46 8.46L17.46 8.49L18.5 9.53ZM6.53 8.49L6.53 8.46C6.23 8.17 5.76 8.17 5.46 8.46C5.17 8.76 5.17 9.23 5.46 9.53L5.49 9.53L6.53 8.49Z" fill="#191919" fill-opacity="1.000000" fill-rule="evenodd"/>
</svg>
