<svg width="24.000000" height="24.000000" viewBox="0 0 24 24" fill="none" xmlns="http://www.w3.org/2000/svg" xmlns:xlink="http://www.w3.org/1999/xlink">
	<desc>
			Created with Pixso.
	</desc>
	<defs>
		<clipPath id="clip156_1737">
			<rect id="Icon/24px/Smart Watches" rx="-0.250000" width="23.500000" height="23.500000" transform="translate(0.250000 0.250000)" fill="white" fill-opacity="0"/>
		</clipPath>
	</defs>
	<g clip-path="url(#clip156_1737)">
		<path id="Vector" d="M8 3C8 2.44 8.44 2 9 2L15 2C15.55 2 16 2.44 16 3L16 5.12C17.72 5.57 19 7.13 19 9L19 15C19 16.86 17.72 18.42 16 18.87L16 21C16 21.55 15.55 22 15 22L9 22C8.44 22 8 21.55 8 21L8 18.87C6.27 18.42 5 16.86 5 15L5 9C5 7.13 6.27 5.57 8 5.12L8 3ZM14 4L14 5L10 5L10 4L14 4ZM15 7L9 7C7.89 7 7 7.89 7 9L7 15C7 16.1 7.89 17 9 17L15 17C16.1 17 17 16.1 17 15L17 9C17 7.89 16.1 7 15 7ZM10.85 9C10.85 8.72 10.63 8.5 10.35 8.5C10.08 8.5 9.85 8.72 9.85 9L9.85 14.5C9.85 14.77 10.08 15 10.35 15C10.63 15 10.85 14.77 10.85 14.5L10.85 9ZM14.85 10.5C14.85 10.22 14.63 10 14.35 10C14.08 10 13.85 10.22 13.85 10.5L13.85 14.5C13.85 14.77 14.08 15 14.35 15C14.63 15 14.85 14.77 14.85 14.5L14.85 10.5ZM12.35 11C12.63 11 12.85 11.22 12.85 11.5L12.85 14.5C12.85 14.77 12.63 15 12.35 15C12.08 15 11.85 14.77 11.85 14.5L11.85 11.5C11.85 11.22 12.08 11 12.35 11ZM10 19L10 20L14 20L14 19L10 19Z" fill="#2E2E2E" fill-opacity="1.000000" fill-rule="evenodd"/>
	</g>
</svg>
