<svg width="24.000000" height="24.000000" viewBox="0 0 24 24" fill="none" xmlns="http://www.w3.org/2000/svg" xmlns:xlink="http://www.w3.org/1999/xlink">
	<desc>
			Created with Pixso.
	</desc>
	<defs>
		<clipPath id="clip156_1741">
			<rect id="Icon/24px/Phones" rx="-0.166667" width="23.666666" height="23.666666" transform="translate(0.166667 0.166667)" fill="white" fill-opacity="0"/>
		</clipPath>
	</defs>
	<g clip-path="url(#clip156_1741)">
		<path id="Vector" d="M17.14 1.67Q16.92 1.62 16.68 1.62L7.31 1.62Q7.07 1.62 6.85 1.67Q6.65 1.71 6.46 1.79Q6.27 1.87 6.11 1.98Q5.93 2.1 5.77 2.26Q5.62 2.41 5.5 2.59Q5.39 2.76 5.31 2.95Q5.23 3.14 5.18 3.34Q5.14 3.56 5.14 3.79L5.14 20.2Q5.14 20.43 5.18 20.65Q5.23 20.85 5.31 21.04Q5.39 21.23 5.5 21.4Q5.62 21.58 5.77 21.73Q5.93 21.89 6.11 22.01Q6.27 22.12 6.46 22.2Q6.65 22.28 6.85 22.32Q7.07 22.37 7.31 22.37L16.68 22.37Q16.92 22.37 17.14 22.32Q17.34 22.28 17.53 22.2Q17.72 22.12 17.88 22.01Q18.06 21.89 18.22 21.73Q18.37 21.58 18.49 21.4Q18.6 21.23 18.68 21.04Q18.76 20.85 18.81 20.65Q18.85 20.43 18.85 20.2L18.85 3.79Q18.85 3.56 18.81 3.34Q18.76 3.14 18.68 2.95Q18.6 2.76 18.49 2.59Q18.37 2.41 18.22 2.26Q18.06 2.1 17.88 1.98Q17.72 1.87 17.53 1.79Q17.34 1.71 17.14 1.67ZM10.21 3.62L7.31 3.62Q7.27 3.62 7.24 3.63Q7.21 3.65 7.19 3.67Q7.16 3.7 7.15 3.73Q7.14 3.76 7.14 3.79L7.14 15.5L16.85 15.5L16.85 3.79Q16.85 3.76 16.84 3.73Q16.83 3.7 16.8 3.67Q16.78 3.65 16.75 3.63Q16.72 3.62 16.68 3.62L14.12 3.62C13.94 3.85 13.66 4 13.34 4L11 4C10.67 4 10.39 3.85 10.21 3.62ZM16.85 17.5L7.14 17.5L7.14 20.2Q7.14 20.23 7.15 20.26Q7.16 20.29 7.19 20.32Q7.21 20.34 7.24 20.36Q7.27 20.37 7.31 20.37L16.68 20.37Q16.72 20.37 16.75 20.36Q16.78 20.34 16.8 20.32Q16.83 20.29 16.84 20.26Q16.85 20.23 16.85 20.2L16.85 17.5ZM13 18.85C13 18.29 12.56 17.85 12 17.85C11.44 17.85 11 18.29 11 18.85L11 18.87C11 19.43 11.44 19.87 12 19.87C12.56 19.87 13 19.43 13 18.87L13 18.85Z" fill="#2E2E2E" fill-opacity="1.000000" fill-rule="evenodd"/>
	</g>
</svg>
