<svg width="24.000000" height="24.000000" viewBox="0 0 24 24" fill="none" xmlns="http://www.w3.org/2000/svg" xmlns:xlink="http://www.w3.org/1999/xlink">
	<desc>
			Created with Pixso.
	</desc>
	<defs>
		<clipPath id="clip385_2881">
			<rect id="Icon/24px/Filters" rx="-0.500000" width="23.000000" height="23.000000" transform="translate(0.500000 0.500000)" fill="white" fill-opacity="0"/>
		</clipPath>
	</defs>
	<rect id="Icon/24px/Filters" rx="-0.500000" width="23.000000" height="23.000000" transform="translate(0.500000 0.500000)" fill="#FFFFFF" fill-opacity="0"/>
	<g clip-path="url(#clip385_2881)">
		<path id="Vector" d="M4 5L10 5M12 7C13.1 7 14 6.1 14 5C14 3.89 13.1 3 12 3C10.89 3 10 3.89 10 5C10 6.1 10.89 7 12 7ZM14 5L20 5M4 12L16 12M18 14C19.1 14 20 13.1 20 12C20 10.89 19.1 10 18 10C16.89 10 16 10.89 16 12C16 13.1 16.89 14 18 14ZM8 19L20 19M6 17C4.89 17 4 17.89 4 19C4 20.1 4.89 21 6 21C7.1 21 8 20.1 8 19C8 17.89 7.1 17 6 17Z" stroke="#000000" stroke-opacity="1.000000" stroke-width="1.000000" stroke-linecap="round"/>
	</g>
</svg>
