<svg width="24.000000" height="24.000000" viewBox="0 0 24 24" fill="none" xmlns="http://www.w3.org/2000/svg" xmlns:xlink="http://www.w3.org/1999/xlink">
	<desc>
			Created with Pixso.
	</desc>
	<defs>
		<clipPath id="clip156_1739">
			<rect id="Icon/24px/Computers" rx="-0.500000" width="23.000000" height="23.000000" transform="translate(0.500000 0.500000)" fill="white" fill-opacity="0"/>
		</clipPath>
	</defs>
	<rect id="Icon/24px/Computers" rx="-0.500000" width="23.000000" height="23.000000" transform="translate(0.500000 0.500000)" fill="#FFFFFF" fill-opacity="0"/>
	<g clip-path="url(#clip156_1739)">
		<path id="Vector" d="M20 4C20.55 4 21 4.44 21 5L21 15C21 15.55 20.55 16 20 16L4 16C3.44 16 3 15.55 3 15L3 5C3 4.44 3.44 4 4 4L20 4ZM7 20L17 20M9 16L9 20M15 16L15 20M3.42 13.71L20.57 13.71" stroke="#2E2E2E" stroke-opacity="1.000000" stroke-width="2.000000" stroke-linecap="round"/>
	</g>
</svg>
