<svg width="24.000000" height="24.000000" viewBox="0 0 24 24" fill="none" xmlns="http://www.w3.org/2000/svg" xmlns:xlink="http://www.w3.org/1999/xlink">
	<desc>
			Created with Pixso.
	</desc>
	<defs>
		<clipPath id="clip328_2640">
			<rect id="Icon/24px/Location" rx="11.500000" width="23.000000" height="23.000000" transform="translate(0.500000 0.500000)" fill="white" fill-opacity="0"/>
		</clipPath>
	</defs>
	<rect id="Icon/24px/Location" rx="11.500000" width="23.000000" height="23.000000" transform="translate(0.500000 0.500000)" fill="#000000" fill-opacity="1.000000"/>
	<g clip-path="url(#clip328_2640)">
		<path id="Vector" d="M11.69 4.5C10.94 4.5 10.2 4.64 9.5 4.93C8.81 5.22 8.18 5.64 7.65 6.17C7.12 6.71 6.71 7.34 6.42 8.03C6.14 8.73 5.99 9.47 6 10.22C6 14.17 10.08 17.8 11.33 18.76C11.44 18.85 11.57 18.9 11.7 18.9C11.84 18.9 11.97 18.85 12.08 18.76C13.34 17.77 17.38 14.17 17.38 10.22C17.39 9.47 17.24 8.73 16.96 8.03C16.67 7.34 16.25 6.71 15.73 6.17C15.2 5.64 14.57 5.22 13.88 4.93C13.18 4.64 12.44 4.5 11.69 4.5ZM11.69 12.59C11.22 12.59 10.75 12.44 10.36 12.18C9.96 11.92 9.65 11.54 9.47 11.1C9.29 10.67 9.24 10.18 9.34 9.72C9.43 9.25 9.66 8.82 9.99 8.49C10.33 8.15 10.76 7.92 11.22 7.83C11.69 7.74 12.17 7.79 12.61 7.97C13.05 8.15 13.42 8.46 13.69 8.85C13.95 9.25 14.09 9.71 14.09 10.19C14.09 10.82 13.84 11.43 13.39 11.88C12.94 12.33 12.33 12.59 11.69 12.59Z" fill="#FFFFFF" fill-opacity="1.000000" fill-rule="nonzero"/>
	</g>
</svg>
