<svg width="24.000000" height="24.000000" viewBox="0 0 24 24" fill="none" xmlns="http://www.w3.org/2000/svg" xmlns:xlink="http://www.w3.org/1999/xlink">
	<desc>
			Created with Pixso.
	</desc>
	<defs>
		<clipPath id="clip156_1736">
			<rect id="Icon/24px/Cameras" rx="-0.500000" width="23.000000" height="23.000000" transform="translate(0.500000 0.500000)" fill="white" fill-opacity="0"/>
		</clipPath>
	</defs>
	<g clip-path="url(#clip156_1736)">
		<path id="Vector" d="M6 7C6.53 7 7.03 6.78 7.41 6.41C7.78 6.03 8 5.53 8 5C8 4.73 8.1 4.48 8.29 4.29C8.48 4.1 8.73 4 9 4L15 4C15.26 4 15.51 4.1 15.7 4.29C15.89 4.48 16 4.73 16 5C16 5.53 16.21 6.03 16.58 6.41C16.96 6.78 17.46 7 18 7L19 7C19.53 7 20.03 7.21 20.41 7.58C20.78 7.96 21 8.46 21 9L21 18C21 18.53 20.78 19.03 20.41 19.41C20.03 19.78 19.53 20 19 20L5 20C4.46 20 3.96 19.78 3.58 19.41C3.21 19.03 3 18.53 3 18L3 9C3 8.46 3.21 7.96 3.58 7.58C3.96 7.21 4.46 7 5 7L6 7ZM12 16C10.34 16 9 14.65 9 13C9 11.34 10.34 10 12 10C13.65 10 15 11.34 15 13C15 14.65 13.65 16 12 16Z" stroke="#2E2E2E" stroke-opacity="1.000000" stroke-width="2.000000" stroke-linejoin="round"/>
	</g>
</svg>
