<svg width="24.000000" height="24.000000" viewBox="0 0 24 24" fill="none" xmlns="http://www.w3.org/2000/svg" xmlns:xlink="http://www.w3.org/1999/xlink">
	<desc>
			Created with Pixso.
	</desc>
	<defs>
		<clipPath id="clip328_2643">
			<rect id="Icon/24px/Shipping" rx="11.500000" width="23.000000" height="23.000000" transform="translate(0.500000 0.500000)" fill="white" fill-opacity="0"/>
		</clipPath>
	</defs>
	<rect id="Icon/24px/Shipping" rx="11.500000" width="23.000000" height="23.000000" transform="translate(0.500000 0.500000)" fill="#000000" fill-opacity="1.000000"/>
	<g clip-path="url(#clip328_2643)">
		<path id="Vector" d="M11.27 16.61C11.02 16.36 10.72 16.18 10.39 16.06L9.71 13.39L17.86 11.11L18.74 14.52L11.27 16.61ZM8.68 9.38L14.12 7.86L14.99 11.27L9.55 12.79L8.68 9.38ZM8.92 16.01C8.77 16.05 8.63 16.11 8.49 16.18L6.09 6.83L5.19 6.83C5.1 7.03 4.91 7.17 4.68 7.17L3.56 7.17C3.25 7.17 3 6.91 3 6.58C3 6.26 3.25 6 3.56 6L4.68 6C4.87 6 5.03 6.1 5.13 6.25L6.87 6.25L6.87 6.28L6.89 6.27L9.37 15.93C9.22 15.95 9.07 15.97 8.92 16.01ZM9.06 16.58C10.12 16.28 11.2 16.94 11.48 18.03C11.76 19.13 11.14 20.26 10.08 20.55C9.03 20.85 7.95 20.2 7.67 19.1C7.39 18 8.01 16.87 9.06 16.58ZM8.77 18.83C8.89 19.3 9.35 19.58 9.8 19.45C10.25 19.33 10.52 18.84 10.4 18.37C10.28 17.9 9.82 17.62 9.37 17.75C8.91 17.88 8.65 18.36 8.77 18.83ZM18.67 16.52L12.1 18.35C12.08 18.2 12.06 18.04 12.02 17.88C11.98 17.72 11.92 17.57 11.86 17.43L18.4 15.6L18.67 16.52Z" fill="#FFFFFF" fill-opacity="1.000000" fill-rule="nonzero"/>
	</g>
</svg>
