<svg width="16.000000" height="16.000000" viewBox="0 0 16 16" fill="none" xmlns="http://www.w3.org/2000/svg" xmlns:xlink="http://www.w3.org/1999/xlink">
	<desc>
			Created with Pixso.
	</desc>
	<defs>
		<clipPath id="clip366_3785">
			<rect id="Icon/16px/Tiktok" rx="-0.500000" width="15.000000" height="15.000000" transform="translate(0.500000 0.500000)" fill="white" fill-opacity="0"/>
		</clipPath>
	</defs>
	<rect id="Icon/16px/Tiktok" rx="-0.500000" width="15.000000" height="15.000000" transform="translate(0.500000 0.500000)" fill="#FFFFFF" fill-opacity="0"/>
	<g clip-path="url(#clip366_3785)">
		<path id="Vector" d="M11.88 3.35C11.22 2.59 10.87 1.6 10.9 0.59L8.44 0.53C8.44 0.53 8.44 0.63 8.44 0.78L8.44 10.66C8.47 13.78 3.53 13.71 3.92 10.25C4.16 8.88 5.64 8.03 6.95 8.51L6.95 5.99C4.1 5.5 1.39 7.77 1.42 10.67C1.67 16.95 10.67 16.95 10.92 10.67C10.86 10.44 10.9 6.26 10.89 5.9C12.01 6.6 13.31 6.95 14.63 6.9L14.63 4.31C13.41 4.31 12.48 3.98 11.88 3.35Z" fill="#FFFFFF" fill-opacity="1.000000" fill-rule="nonzero"/>
	</g>
</svg>
